Coordinates
nRows=409
nColumns=2
inDegrees=yes
endheader
time	ankle_angle_r	
2.62786	 19.653612	
2.66112	 19.678133	
2.69438	 19.699162	
2.72765	 19.716597	
2.76091	 19.728533	
2.79418	 19.730822	
2.82744	 19.727239	
2.8607	 19.719748	
2.89397	 19.695877	
2.92723	 19.655260	
2.9605	 19.623709	
2.99376	 19.618206	
3.02702	 19.627342	
3.06029	 19.635350	
3.09355	 19.639940	
3.12682	 19.639792	
3.16008	 19.628267	
3.19334	 19.609635	
3.22661	 19.595792	
3.25987	 19.586878	
3.29314	 19.581110	
3.3264	 19.585891	
3.35966	 19.601281	
3.39293	 19.616877	
3.42619	 19.626028	
3.45946	 19.627563	
3.49272	 19.627349	
3.52598	 19.635718	
3.55925	 19.650385	
3.59251	 19.658622	
3.62578	 19.652965	
3.65904	 19.630106	
3.6923	 19.593439	
3.72557	 19.556398	
3.75883	 19.527821	
3.7921	 19.509209	
3.82536	 19.501104	
3.85862	 19.497337	
3.89189	 19.493779	
3.92515	 19.497672	
3.95842	 19.509213	
3.99168	 19.516698	
4.02494	 19.514883	
4.05821	 19.507884	
4.09147	 19.502688	
4.12474	 19.504076	
4.158	 19.506909	
4.19126	 19.507169	
4.22453	 19.514379	
4.25779	 19.531357	
4.29106	 19.546530	
4.32432	 19.554178	
4.35758	 19.553038	
4.39085	 19.541186	
4.42411	 19.525502	
4.45738	 19.515292	
4.49064	 19.517051	
4.5239	 19.536447	
4.55717	 19.566395	
4.59043	 19.590681	
4.6237	 19.603952	
4.65696	 19.607654	
4.69022	 19.601376	
4.72349	 19.594041	
4.75675	 19.602236	
4.79002	 19.630365	
4.82328	 19.664698	
4.85654	 19.685122	
4.88981	 19.684284	
4.92307	 19.675888	
4.95634	 19.678974	
4.9896	 19.697802	
5.02286	 19.716563	
5.05613	 19.718521	
5.08939	 19.709056	
5.12266	 19.702125	
5.15592	 19.702880	
5.18918	 19.716159	
5.22245	 19.738358	
5.25571	 19.748223	
5.28898	 19.732583	
5.32224	 19.702467	
5.3555	 19.678784	
5.38877	 19.678012	
5.42203	 19.697226	
5.4553	 19.711579	
5.48856	 19.706154	
5.52182	 19.692404	
5.55509	 19.686306	
5.58835	 19.694689	
5.62162	 19.714952	
5.65488	 19.732889	
5.68814	 19.733671	
5.72141	 19.718586	
5.75467	 19.701227	
5.78794	 19.694814	
5.8212	 19.704980	
5.85446	 19.724843	
5.88773	 19.739508	
5.92099	 19.736713	
5.95426	 19.719122	
5.98752	 19.708187	
6.02078	 19.716987	
6.05405	 19.725218	
6.08731	 19.707295	
6.12058	 19.673218	
6.15384	 19.655685	
6.1871	 19.666733	
6.22037	 19.687175	
6.25363	 19.696315	
6.2869	 19.696993	
6.32016	 19.701745	
6.35342	 19.711005	
6.38669	 19.721943	
6.41995	 19.735744	
6.45322	 19.745270	
6.48648	 19.738519	
6.51974	 19.712823	
6.55301	 19.677105	
6.58627	 19.650757	
6.61954	 19.651869	
6.6528	 19.677615	
6.68606	 19.706256	
6.71933	 19.716065	
6.75259	 19.702660	
6.78586	 19.680544	
6.81912	 19.660912	
6.85238	 19.642982	
6.88565	 19.629249	
6.91891	 19.623182	
6.95218	 19.620962	
6.98544	 19.619659	
7.0187	 19.618559	
7.05197	 19.618759	
7.08523	 19.627110	
7.1185	 19.642779	
7.15176	 19.652189	
7.18502	 19.649903	
7.21829	 19.643179	
7.25155	 19.637609	
7.28482	 19.632729	
7.31808	 19.625193	
7.35134	 19.616207	
7.38461	 19.608893	
7.41787	 19.594223	
7.45114	 19.565372	
7.4844	 19.537491	
7.51766	 19.525294	
7.55093	 19.524010	
7.58419	 19.523568	
7.61746	 19.520227	
7.65072	 19.517226	
7.68398	 19.516861	
7.71725	 19.512764	
7.75051	 19.503212	
7.78378	 19.497536	
7.81704	 19.498000	
7.8503	 19.499439	
7.88357	 19.501808	
7.91683	 19.501807	
7.9501	 19.494787	
7.98336	 19.489149	
8.01662	 19.492547	
8.04989	 19.499526	
8.08315	 19.504181	
8.11642	 19.504398	
8.14968	 19.503723	
8.18294	 19.514285	
8.21621	 19.539017	
8.24947	 19.566142	
8.28274	 19.587850	
8.316	 19.605876	
8.34926	 19.625891	
8.38253	 19.648539	
8.41579	 19.661314	
8.44906	 19.655050	
8.48232	 19.641332	
8.51558	 19.636470	
8.54885	 19.642927	
8.58211	 19.652081	
8.61538	 19.657574	
8.64864	 19.664063	
8.6819	 19.676231	
8.71517	 19.690761	
8.74843	 19.703939	
8.7817	 19.709681	
8.81496	 19.704686	
8.84822	 19.701718	
8.88149	 19.707557	
8.91475	 19.707059	
8.94802	 19.694928	
8.98128	 19.683792	
9.01454	 19.679950	
9.04781	 19.686989	
9.08107	 19.709064	
9.11434	 19.737839	
9.1476	 19.760453	
9.18086	 19.771075	
9.21413	 19.769902	
9.24739	 19.762789	
9.28066	 19.752342	
9.31392	 19.735007	
9.34718	 19.719098	
9.38045	 19.716894	
9.41371	 19.717546	
9.44698	 19.705383	
9.48024	 19.685140	
9.5135	 19.668640	
9.54677	 19.662627	
9.58003	 19.663833	
9.6133	 19.660529	
9.64656	 19.655242	
9.67982	 19.664964	
9.71309	 19.688551	
9.74635	 19.705822	
9.77962	 19.706311	
9.81288	 19.694426	
9.84614	 19.680559	
9.87941	 19.675007	
9.91267	 19.679030	
9.94594	 19.688150	
9.9792	 19.698454	
10.0125	 19.702758	
10.0457	 19.696656	
10.079	 19.685837	
10.1123	 19.677565	
10.1455	 19.670815	
10.1788	 19.662701	
10.212	 19.660059	
10.2453	 19.667121	
10.2786	 19.672626	
10.3118	 19.667368	
10.3451	 19.651903	
10.3784	 19.624685	
10.4116	 19.591261	
10.4449	 19.568286	
10.4782	 19.558065	
10.5114	 19.546850	
10.5447	 19.529137	
10.578	 19.510176	
10.6112	 19.501126	
10.6445	 19.514519	
10.6777	 19.544302	
10.711	 19.567565	
10.7443	 19.568616	
10.7775	 19.544837	
10.8108	 19.508619	
10.8441	 19.483453	
10.8773	 19.478998	
10.9106	 19.485476	
10.9439	 19.493196	
10.9771	 19.497572	
11.0104	 19.498072	
11.0436	 19.500792	
11.0769	 19.506683	
11.1102	 19.511011	
11.1434	 19.519081	
11.1767	 19.536599	
11.21	 19.558291	
11.2432	 19.579194	
11.2765	 19.594434	
11.3098	 19.597148	
11.343	 19.590108	
11.3763	 19.585263	
11.4096	 19.594766	
11.4428	 19.621368	
11.4761	 19.648648	
11.5093	 19.657361	
11.5426	 19.650591	
11.5759	 19.643448	
11.6091	 19.641971	
11.6424	 19.642103	
11.6757	 19.636821	
11.7089	 19.627646	
11.7422	 19.625780	
11.7755	 19.633403	
11.8087	 19.637290	
11.842	 19.623978	
11.8752	 19.596523	
11.9085	 19.576572	
11.9418	 19.579092	
11.975	 19.594169	
12.0083	 19.607696	
12.0416	 19.614473	
12.0748	 19.611403	
12.1081	 19.602862	
12.1414	 19.596007	
12.1746	 19.591929	
12.2079	 19.597275	
12.2412	 19.617826	
12.2744	 19.639217	
12.3077	 19.643692	
12.3409	 19.632809	
12.3742	 19.617508	
12.4075	 19.605408	
12.4407	 19.599357	
12.474	 19.597732	
12.5073	 19.599311	
12.5405	 19.602274	
12.5738	 19.603137	
12.6071	 19.603947	
12.6403	 19.606216	
12.6736	 19.606887	
12.7068	 19.610884	
12.7401	 19.623049	
12.7734	 19.636344	
12.8066	 19.651587	
12.8399	 19.678416	
12.8732	 19.707765	
12.9064	 19.720442	
12.9397	 19.713510	
12.973	 19.697608	
13.0062	 19.688851	
13.0395	 19.696971	
13.0728	 19.711701	
13.106	 19.720890	
13.1393	 19.725642	
13.1725	 19.726263	
13.2058	 19.718983	
13.2391	 19.701034	
13.2723	 19.669256	
13.3056	 19.625398	
13.3389	 19.581319	
13.3721	 19.555580	
13.4054	 19.557411	
13.4387	 19.571679	
13.4719	 19.575692	
13.5052	 19.563519	
13.5384	 19.544314	
13.5717	 19.531578	
13.605	 19.529522	
13.6382	 19.527181	
13.6715	 19.518112	
13.7048	 19.510816	
13.738	 19.512033	
13.7713	 19.519292	
13.8046	 19.525520	
13.8378	 19.522238	
13.8711	 19.513165	
13.9044	 19.513441	
13.9376	 19.523045	
13.9709	 19.530942	
14.0041	 19.539065	
14.0374	 19.546606	
14.0707	 19.540721	
14.1039	 19.525251	
14.1372	 19.520970	
14.1705	 19.538613	
14.2037	 19.571043	
14.237	 19.595140	
14.2703	 19.591819	
14.3035	 19.577669	
14.3368	 19.584794	
14.37	 19.615044	
14.4033	 19.646968	
14.4366	 19.665615	
14.4698	 19.670715	
14.5031	 19.669949	
14.5364	 19.666171	
14.5696	 19.659401	
14.6029	 19.654376	
14.6362	 19.653869	
14.6694	 19.658396	
14.7027	 19.668148	
14.736	 19.677120	
14.7692	 19.680618	
14.8025	 19.681451	
14.8357	 19.679027	
14.869	 19.670024	
14.9023	 19.657978	
14.9355	 19.649600	
14.9688	 19.648845	
15.0021	 19.654941	
15.0353	 19.665747	
15.0686	 19.680390	
15.1019	 19.688778	
15.1351	 19.679131	
15.1684	 19.661455	
15.2016	 19.653602	
15.2349	 19.657133	
15.2682	 19.667099	
15.3014	 19.679510	
15.3347	 19.687738	
15.368	 19.690847	
15.4012	 19.690333	
15.4345	 19.685480	
15.4678	 19.688488	
15.501	 19.708742	
15.5343	 19.722185	
15.5676	 19.702405	
15.6008	 19.659931	
15.6341	 19.619679	
15.6673	 19.595737	
15.7006	 19.592618	
15.7339	 19.603334	
15.7671	 19.615399	
15.8004	 19.618933	
15.8337	 19.607466	
15.8669	 19.588146	
15.9002	 19.577576	
15.9335	 19.579778	
15.9667	 19.589201	
16	 19.603848	
16.0332	 19.617898	
16.0665	 19.619717	
16.0998	 19.606145	
16.133	 19.592799	
16.1663	 19.606508	
16.1996	 19.653161	
